<?xml version="1.0" standalone="no"?>
<!DOCTYPE svg PUBLIC "-//W3C//DTD SVG 1.1//EN" "http://www.w3.org/Graphics/SVG/1.1/DTD/svg11.dtd" >
<svg xmlns="http://www.w3.org/2000/svg" xmlns:xlink="http://www.w3.org/1999/xlink" version="1.1">
<metadata></metadata>
<defs>
<font id="robotech_gpregular" horiz-adv-x="950" >
<font-face units-per-em="2048" ascent="1638" descent="-410" />
<missing-glyph horiz-adv-x="700" />
<glyph horiz-adv-x="0" />
<glyph unicode="&#xd;" horiz-adv-x="569" />
<glyph unicode=" "  horiz-adv-x="700" />
<glyph unicode="&#x09;" horiz-adv-x="700" />
<glyph unicode="&#xa0;" horiz-adv-x="700" />
<glyph unicode="!" horiz-adv-x="569" d="M0 0v216h249v-216h-249zM0 298v702h250v-702h-250z" />
<glyph unicode="&#x22;" horiz-adv-x="727" d="M70 989q150 110 224 401v-508q-38 132 -224 107zM348 882v508q74 -291 224 -401q-186 25 -224 -107z" />
<glyph unicode="#" horiz-adv-x="1200" d="M40 580v220h165v200h250v-200h250v200h250v-200h151v-220h-151v-190h156v-220h-156v-170h-250v171l-160 -1l-89 160l-1 -330h-250v170h-160v220h160v190h-165zM455 390h250v352l-92 -162h-158v-190z" />
<glyph unicode="$" horiz-adv-x="1139" d="M1 0l99 216h230v184h-63q-264 44 -266 274v28q2 264 264 297h65v154h250v-154h321l-101 -215h-220v-174h54q264 -44 266 -275v-28q-2 -275 -264 -307h-56v-169h-250v169h-329zM250 692q0 -72 80 -82v174h-7q-74 -11 -73 -92zM580 217q71 15 71 96q0 68 -71 85v-181z" />
<glyph unicode="%" horiz-adv-x="900" d="M0 0l506 1000h267l-506 -1000h-267zM0 584v216h249v-216h-249zM500 190v216h249v-216h-249z" />
<glyph unicode="&#x26;" horiz-adv-x="1100" d="M0 240v61q12 155 154 219q-146 58 -148 195t72.5 211t237.5 77h251q163 -3 237.5 -77.5t72.5 -214.5h-246q-2 70 -102 71h-181v1q-94 -4 -95 -84q-1 -83 60 -86h720v-210h-156v-166q-1 -199 -213 -237l-429 1q-225 40 -235 239zM270.5 313.5q0.5 -86.5 87.5 -89.5h183 q91 3 91 89v85l1 134l-100 -128h-211q-52 -4 -51.5 -90.5z" />
<glyph unicode="'" horiz-adv-x="391" d="M70 989q150 110 224 401v-508q-38 132 -224 107zM348 882v508q74 -291 224 -401q-186 25 -224 -107z" />
<glyph unicode="(" horiz-adv-x="600" d="M26 499q0 302 125 601h249q-249 -599 0 -1207h-249q-125 304 -125 606z" />
<glyph unicode=")" horiz-adv-x="682" d="M100 -107q249 608 0 1207h249q125 -299 125 -601t-125 -606h-249z" />
<glyph unicode="*" horiz-adv-x="623" d="M73 1000l112 178h237l122 -171l-241 -307zM134 1000l171 -224l179 232l-78 110h-200zM158 1005l60 91h87v-56l-50 -66l62 -78l47 57v143h26l65 -89l-150 -193zM227 1027h1v3h4q1 1 2 3l-2 2h-5v-8zM227 1055q0 -4 3 -4h4v5h-6q1 2 2 2h3l1 1h-4q-3 0 -3 -4zM228 1031v3h3 q3 0 1 -3h-4zM228 1055h5v-3h-3q-2 0 -2 3zM239 1026h1l1 2h6l1 -2h1l-5 8h-1zM240 1055q0 -2 1 -3t3 -1t3 1t1 3v4h-1v-4q0 -1 -1.5 -2t-3 0t-1.5 2v4h-1v-4zM242 1029l2 4l2 -4h-4zM255 1026h7v1h-5l6 7h-8v-1h6zM255 1051h6q2 0 2 4h-5q-2 0 -2 2t6 1l1 1h-6q-2 0 -2 -2 t2 -3h5q0 -3 -2 -2h-4z" />
<glyph unicode="+" horiz-adv-x="900" d="M50 400v200h250v189h250v-189h250v-200h-250v-184h-250v184h-250z" />
<glyph unicode="," horiz-adv-x="569" d="M31 0v216h249v-216l-249 -200l81 200h-81z" />
<glyph unicode="-" horiz-adv-x="700" d="M0 400v200h650v-200h-650z" />
<glyph unicode="." horiz-adv-x="569" d="M0 0v216h249v-216h-249z" />
<glyph unicode="/" horiz-adv-x="800" d="M0 0l506 1000h267l-506 -1000h-267z" />
<glyph unicode="0" horiz-adv-x="1045" d="M-13 501q0 224 129.5 362t330.5 138q210 0 335 -138t125 -362t-120.5 -362t-339.5 -138q-217 0 -338.5 143.5t-121.5 356.5zM226 501q0 -98 54 -193t173 -95q111 0 159.5 85t48.5 203q0 120 -48.5 203.5t-159.5 83.5q-118 0 -172.5 -84.5t-54.5 -202.5z" />
<glyph unicode="1" horiz-adv-x="644" d="M-8 612l259 387h249v-999h-250v616l-7 -4h-251z" />
<glyph unicode="2" horiz-adv-x="1041" d="M0 0v282q3 297 268 328h302q82 9 82 82q1 81 -73 92h-578v215h636q262 -33 264 -297v-28q-2 -230 -266 -274h-285q-104 1 -104 -184h656l-111 -216h-791z" />
<glyph unicode="3" horiz-adv-x="1050" d="M0 -1l110 220h448q89 0 88.5 89t-88.5 89h-187l-137 215h329q101 0 100.5 83.5t-101.5 83.5h-562v221h600q163 -3 237.5 -77.5t72.5 -211.5t-148 -195q142 -64 154 -219v-61q-10 -199 -235 -237h-681z" />
<glyph unicode="4" horiz-adv-x="1100" d="M-50 381l487 619h249l-316 -409h329l-114 -210h-635zM700 0v1000h250v-1000h-250z" />
<glyph unicode="5" horiz-adv-x="1000" d="M-23 0l123 216h442q77 8 77 97q0 78 -82 87h-538v599h898l-107 -215h-545l1 -174h374q246 -21 248 -265v-48q-2 -265 -264 -297h-627z" />
<glyph unicode="6" horiz-adv-x="1045" d="M0 274l1 428q2 284 264 297h636l-105 -215h-473q-74 -11 -73 -92v-77h386q262 -14 264 -298v-43q-2 -269 -266 -274h-368q-264 5 -266 274zM249 307q0 -88 82 -97h238q82 9 82 97q1 81 -73 92h-206l-123 187v-279z" />
<glyph unicode="7" horiz-adv-x="1050" d="M0 784v216h990l-480 -1000h-280l376 784h-606z" />
<glyph unicode="8" horiz-adv-x="1139" d="M0 237v61q12 155 154 219q-146 58 -148 195t72.5 211.5t237.5 77.5h368q163 -3 237.5 -77.5t72.5 -211.5t-148 -195q142 -64 154 -219v-61q-10 -199 -235 -237h-530q-225 38 -235 237zM252.5 696.5q-0.5 -83.5 100.5 -83.5h294q101 0 100.5 83.5t-101.5 83.5h-292 q-101 0 -101.5 -83.5zM269.5 309q-0.5 -89 88.5 -89h284q89 0 88.5 89t-88.5 89h-284q-88 0 -88.5 -89z" />
<glyph unicode="9" horiz-adv-x="1050" d="M0 0l120 215h458q74 11 73 92l-1 277l-112 -200h-273q-262 14 -264 298v43q2 269 266 274h368q264 -5 266 -274l-1 -428q-2 -284 -264 -297h-636zM250 692q-1 -81 73 -92h327l2 92q0 88 -82 97h-238q-82 -9 -82 -97z" />
<glyph unicode=":" horiz-adv-x="400" d="M0 216v184h249v-184h-249zM0 600v184h249v-184h-249z" />
<glyph unicode=";" horiz-adv-x="569" d="M0 0v216h249v-216l-249 -200l81 200h-81zM0 300v202h249v-202h-249z" />
<glyph unicode="&#x3c;" horiz-adv-x="450" d="M0 500l400 300v-200l-123 -100l123 -100v-184z" />
<glyph unicode="=" d="M0 216v184h800v-184h-800zM0 600v184h800v-184h-800z" />
<glyph unicode="&#x3e;" horiz-adv-x="500" d="M0 216v184l123 100l-123 100v200l400 -300z" />
<glyph unicode="?" horiz-adv-x="1139" d="M61 780v218h572q140 -6 228.5 -93.5t88.5 -233.5q-5 -247 -228 -306h-309l-142 200h341q77 19 79 105q-2 96 -87 110h-543zM409 1v215h244v-215h-244z" />
<glyph unicode="@" horiz-adv-x="1100" d="M-13 501q0 224 141.5 362t360.5 138q229 0 365.5 -138t136.5 -362t-131.5 -362t-370.5 -138q-237 0 -369.5 143.5t-132.5 356.5zM231 489q0 -101 63 -198.5t201 -97.5q128 0 184.5 87.5t56.5 208.5q0 123 -56.5 209t-184.5 86q-137 0 -200.5 -87t-63.5 -208zM257 369 q150 110 224 401v-508q-38 132 -224 107zM495 262v508q74 -291 224 -401q-186 25 -224 -107z" />
<glyph unicode="A" horiz-adv-x="1173" d="M-17 -1l444 999h280l445 -999h-265l-81 180h-269l-122 167l-157 -347h-275zM438 400h269l-136 298z" />
<glyph unicode="B" horiz-adv-x="937" d="M0 -1v999h600q164 -2 238 -76q73 -72 72 -204v-7q-2 -137 -148 -195q142 -64 154 -219v-61q-10 -199 -235 -237h-681zM259 223h299q89 0 89 84q0 86 -89 90h-187l-112 177v-351zM260 612h303q100 0 100 81q0 85 -101 86h-302v-167z" />
<glyph unicode="C" d="M0 500q0 450 450 500h451l-101 -216h-325q-209 -1 -213 -281q2 -286 187 -286h1h451v-217h-491q-410 50 -410 500z" />
<glyph unicode="D" horiz-adv-x="974" d="M0 1000h459q450 -38 451 -500q0 -464 -410 -500h-490v604h248v-387h201q187 0 188 286q-3 280 -226 280h-2h-317z" />
<glyph unicode="E" horiz-adv-x="829" d="M0 0v217h760v-217h-760zM0 400v214h700v-214h-700zM0 780v218h810l-110 -218h-700z" />
<glyph unicode="F" horiz-adv-x="827" d="M0 1v614h700v-213h-451v-402zM0 785v213h810l-110 -213h-700z" />
<glyph unicode="G" horiz-adv-x="955" d="M-11 500q0 450 450 500h451l-101 -216h-325q-162 -1 -201 -169h626v-615h-490q-410 50 -410 500zM251 503q2 -286 188 -286h200v185h-300l-83 176z" />
<glyph unicode="H" horiz-adv-x="925" d="M0 -1v1000h250v-379h350v379h250v-1000h-250v576l-90 -166h-260v-410h-250z" />
<glyph unicode="I" horiz-adv-x="300" d="M0 0v1000h250v-1000h-250z" />
<glyph unicode="J" horiz-adv-x="1024" d="M0 0l102 217h321q210 1 228 282l-1 285h-650v215h901v-497q-3 -450 -453 -502h-448z" />
<glyph unicode="K" horiz-adv-x="973" d="M0 0v998h250v-388l373 390h320l-410 -436h-4l421 -564h-304l-397 511v-511h-249z" />
<glyph unicode="L" d="M0 0v999h249v-782h651l-100 -217h-800z" />
<glyph unicode="M" horiz-adv-x="1150" d="M0 0v1000h249l421 -601h-248l-172 238v-637h-250zM571 612l270 387h249v-999h-250v612h-269z" />
<glyph unicode="N" d="M-1 999h1v1h249v-1l401 -581v581h251v-993l4 -6h-255v8l-401 580v-588h-249v997z" />
<glyph unicode="O" horiz-adv-x="1050" d="M-3 501q0 224 141.5 362t360.5 138q229 0 365.5 -138t136.5 -362t-131.5 -362t-370.5 -138q-237 0 -369.5 143.5t-132.5 356.5zM264 501q0 -98 59 -193t189 -95q121 0 174 85t53 203q0 120 -53 203.5t-174 83.5q-129 0 -188.5 -84.5t-59.5 -202.5z" />
<glyph unicode="P" d="M0 0v999h597q264 -46 266 -286v-60q-2 -244 -264 -290h-249l-102 146v-509h-248zM250 561h301q63 19 63 117q0 85 -82 105h-282v-222z" />
<glyph unicode="Q" horiz-adv-x="1061" d="M-13 501q0 224 141.5 362t360.5 138q229 0 365.5 -138t136.5 -362q0 -200 -105 -332l114 -169h-451l-60 1q-237 0 -369.5 143.5t-132.5 356.5zM250 501q0 -98 59 -193t189 -95q45 0 80 12l-128 208h264q11 14 11 68q0 120 -53 203.5t-174 83.5q-129 0 -188.5 -84.5 t-59.5 -202.5z" />
<glyph unicode="R" horiz-adv-x="920" d="M1 0v998h572q140 -6 228.5 -93.5t88.5 -233.5q-5 -247 -228 -306l252 -365h-304l-360 511v-511h-249zM251 565h301q77 19 79 105q-2 96 -87 110h-293v-215z" />
<glyph unicode="S" d="M1 0l99 216h474q77 13 77 97q0 73 -82 87h-302q-264 44 -266 274v28q2 264 264 297h636l-101 -215h-477q-73 -11 -73 -90q0 -75 82 -84h302q264 -44 266 -275v-28q-2 -275 -264 -307h-635z" />
<glyph unicode="T" horiz-adv-x="926" d="M0 784v215h901l-101 -215h-250v-784h-250v784h-300z" />
<glyph unicode="U" horiz-adv-x="982" d="M0 1000h265v-498q0 -98 50.5 -193t148.5 -95q90 0 138.5 85t48.5 203v498h264v-498q0 -224 -119.5 -362t-337.5 -138q-216 0 -336.5 143.5t-120.5 356.5z" />
<glyph unicode="V" horiz-adv-x="1171" d="M0 998h258l313 -699l316 699h263l-445 -999h-261z" />
<glyph unicode="W" horiz-adv-x="1442" d="M0 999h266l419 -999h-260zM452 999h266l241 -564l265 565h266l-276 -600h-239l171 -400h-260z" />
<glyph unicode="X" horiz-adv-x="1000" d="M0 0l441 613h-168l-273 386h259l228 -318l229 319h260l-359 -501l358 -499h-260l-227 318l-228 -318h-260z" />
<glyph unicode="Y" horiz-adv-x="1100" d="M0 1000h266l265 -565l242 564h266l-434 -999h-260l171 400h-239z" />
<glyph unicode="Z" horiz-adv-x="929" d="M-2 785v216h902l-473 -785h423v-216h-850l466 785h-468z" />
<glyph unicode="[" horiz-adv-x="569" d="M0 -200v1400h450l-90 -200h-110v-1000h150v-200h-400z" />
<glyph unicode="\" horiz-adv-x="672" d="M0 1000h249l372 -1000h-249z" />
<glyph unicode="]" horiz-adv-x="569" d="M100 0h150v1000h-150v200h400v-1400h-400v200z" />
<glyph unicode="^" horiz-adv-x="600" d="M0 784l296 403l288 -397l-184 -2l-101 122l-99 -124z" />
<glyph unicode="_" horiz-adv-x="1139" d="M0 0h1000v-200h-1000v200z" />
<glyph unicode="`" horiz-adv-x="981" d="M152 1200h283l119 -200h-283z" />
<glyph unicode="a" horiz-adv-x="1181" d="M-17 -1l444 999h280l445 -999h-265l-81 180h-269l-122 167l-157 -347h-275zM438 400h269l-136 298z" />
<glyph unicode="b" d="M0 -1v999h600q164 -2 238 -76q73 -72 72 -204v-7q-2 -137 -148 -195q142 -64 154 -219v-61q-10 -199 -235 -237h-681zM259 223h299q89 0 89 84q0 86 -89 90h-187l-112 177v-351zM260 612h303q100 0 100 81q0 85 -101 86h-302v-167z" />
<glyph unicode="c" d="M0 500q0 450 450 500h451l-101 -216h-325q-209 -1 -213 -281q2 -286 187 -286h1h451v-217h-491q-410 50 -410 500z" />
<glyph unicode="d" horiz-adv-x="973" d="M0 1000h459q450 -38 451 -500q0 -464 -410 -500h-490v604h248v-387h201q187 0 188 286q-3 280 -226 280h-2h-317z" />
<glyph unicode="e" horiz-adv-x="845" d="M0 0v217h760v-217h-760zM0 400v214h700v-214h-700zM0 780v218h810l-110 -218h-700z" />
<glyph unicode="f" horiz-adv-x="845" d="M0 1v614h700v-213h-451v-402zM0 785v213h810l-110 -213h-700z" />
<glyph unicode="g" d="M-11 500q0 450 450 500h451l-101 -216h-325q-162 -1 -201 -169h626v-615h-490q-410 50 -410 500zM251 503q2 -286 188 -286h200v185h-300l-83 176z" />
<glyph unicode="h" horiz-adv-x="924" d="M0 -1v1000h250v-379h350v379h250v-1000h-250v576l-90 -166h-260v-410h-250z" />
<glyph unicode="i" horiz-adv-x="300" d="M0 0v1000h250v-1000h-250z" />
<glyph unicode="j" horiz-adv-x="1000" d="M0 0l102 217h321q210 1 228 282l-1 285h-650v215h901v-497q-3 -450 -453 -502h-448z" />
<glyph unicode="k" horiz-adv-x="1000" d="M0 0v998h250v-388l373 390h320l-410 -436h-4l421 -564h-304l-397 511v-511h-249z" />
<glyph unicode="l" d="M0 0v999h249v-782h651l-100 -217h-800z" />
<glyph unicode="m" horiz-adv-x="1175" d="M0 0v1000h249l421 -601h-248l-172 238v-637h-250zM571 612l270 387h249v-999h-250v612h-269z" />
<glyph unicode="n" horiz-adv-x="1000" d="M-1 999h1v1h249v-1l401 -581v581h251v-993l4 -6h-255v8l-401 580v-588h-249v997z" />
<glyph unicode="o" horiz-adv-x="1055" d="M-3 501q0 224 141.5 362t360.5 138q229 0 365.5 -138t136.5 -362t-131.5 -362t-370.5 -138q-237 0 -369.5 143.5t-132.5 356.5zM264 501q0 -98 59 -193t189 -95q121 0 174 85t53 203q0 120 -53 203.5t-174 83.5q-129 0 -188.5 -84.5t-59.5 -202.5z" />
<glyph unicode="p" d="M0 0v999h597q264 -46 266 -286v-60q-2 -244 -264 -290h-249l-102 146v-509h-248zM250 561h301q63 19 63 117q0 85 -82 105h-282v-222z" />
<glyph unicode="q" horiz-adv-x="1055" d="M-13 501q0 224 141.5 362t360.5 138q229 0 365.5 -138t136.5 -362q0 -200 -105 -332l114 -169h-451l-60 1q-237 0 -369.5 143.5t-132.5 356.5zM250 501q0 -98 59 -193t189 -95q45 0 80 12l-128 208h264q11 14 11 68q0 120 -53 203.5t-174 83.5q-129 0 -188.5 -84.5 t-59.5 -202.5z" />
<glyph unicode="r" d="M1 0v998h572q140 -6 228.5 -93.5t88.5 -233.5q-5 -247 -228 -306l252 -365h-304l-360 511v-511h-249zM251 565h301q77 19 79 105q-2 96 -87 110h-293v-215z" />
<glyph unicode="s" d="M1 0l99 216h474q77 13 77 97q0 73 -82 87h-302q-264 44 -266 274v28q2 264 264 297h636l-101 -215h-477q-73 -11 -73 -90q0 -75 82 -84h302q264 -44 266 -275v-28q-2 -275 -264 -307h-635z" />
<glyph unicode="t" d="M0 784v215h901l-101 -215h-250v-784h-250v784h-300z" />
<glyph unicode="u" d="M0 1000h265v-498q0 -98 50.5 -193t148.5 -95q90 0 138.5 85t48.5 203v498h264v-498q0 -224 -119.5 -362t-337.5 -138q-216 0 -336.5 143.5t-120.5 356.5z" />
<glyph unicode="v" horiz-adv-x="1178" d="M0 998h258l313 -699l316 699h263l-445 -999h-261z" />
<glyph unicode="w" horiz-adv-x="1400" d="M-91 999h266l419 -999h-260zM361 999h266l241 -564l265 565h266l-276 -600h-239l171 -400h-260z" />
<glyph unicode="x" horiz-adv-x="1000" d="M0 0l441 613h-168l-273 386h259l228 -318l229 319h260l-359 -501l358 -499h-260l-227 318l-228 -318h-260z" />
<glyph unicode="y" horiz-adv-x="1050" d="M0 1000h266l265 -565l242 564h266l-434 -999h-260l171 400h-239z" />
<glyph unicode="z" d="M-2 785v216h902l-473 -785h423v-216h-850l466 785h-468z" />
<glyph unicode="{" horiz-adv-x="684" d="M26 499q0 302 125 601h249q-249 -599 0 -1207h-249q-125 304 -125 606z" />
<glyph unicode="|" horiz-adv-x="353" d="M0 -103v1203h271v-1203h-271z" />
<glyph unicode="}" horiz-adv-x="684" d="M100 -107q249 608 0 1207h249q125 -299 125 -601t-125 -606h-249z" />
<glyph unicode="~" horiz-adv-x="1100" d="M0 1200v200h912v-200h-912z" />
<glyph unicode="&#xa1;" horiz-adv-x="400" d="M0 0v702h250v-702h-250zM1 784v216h249v-216h-249z" />
<glyph unicode="&#xa8;" horiz-adv-x="1000" d="M0 1200v200h243v-200h-243zM640 1200v200h260v-200h-260z" />
<glyph unicode="&#xad;" horiz-adv-x="700" d="M0 400v200h650v-200h-650z" />
<glyph unicode="&#xb4;" horiz-adv-x="1000" d="M400 1200l93 200h273l-93 -200h-273z" />
<glyph unicode="&#xb7;" horiz-adv-x="569" d="M0 0v216h271v-216h-271z" />
<glyph unicode="&#xbf;" horiz-adv-x="1200" d="M61 328q5 247 228 306h309l142 -200h-341q-77 -19 -79 -105q2 -96 87 -110h543v-218h-572q-140 6 -228.5 93.5t-88.5 233.5zM358 783v215h244v-215h-244z" />
<glyph unicode="&#xc1;" horiz-adv-x="1366" d="M-17 -1l444 999h280l445 -999h-265l-81 180h-269l-122 167l-157 -347h-275zM434 1200l93 200h273l-93 -200h-273zM438 400h269l-136 298z" />
<glyph unicode="&#xc7;" d="M0 500q0 450 450 500h451l-101 -216h-325q-209 -1 -213 -281q2 -287 188 -286h451v-217h-166q3 -23 3 -49v-48q-2 -265 -254 -297h-234l80 216h92q77 8 77 97q0 63 -54 81h-35q-410 50 -410 500z" />
<glyph unicode="&#xc9;" horiz-adv-x="845" d="M0 0v217h760v-217h-760zM0 400v214h700v-214h-700zM0 780v218h810l-110 -218h-700zM271 1200l93 200h273l-93 -200h-273z" />
<glyph unicode="&#xcd;" horiz-adv-x="569" d="M0 0v1000h250v-1000h-250zM0 1200l87 200h257l-88 -200h-256z" />
<glyph unicode="&#xd1;" d="M-1 999h1v1h249v-1l401 -581v581h251v-993l4 -6h-255v8l-401 580v-588h-249v997zM0 1200v200h907v-200h-907z" />
<glyph unicode="&#xd3;" horiz-adv-x="1593" d="M-3 501q0 224 141.5 362t360.5 138q229 0 365.5 -138t136.5 -362t-131.5 -362t-370.5 -138q-237 0 -369.5 143.5t-132.5 356.5zM264 501q0 -98 59 -193t189 -95q121 0 174 85t53 203q0 120 -53 203.5t-174 83.5q-129 0 -188.5 -84.5t-59.5 -202.5zM400 1200l93 200h273 l-93 -200h-273z" />
<glyph unicode="&#xd7;" d="M27 100l249 260l-236 242h268l100 -105l111 116h268l-247 -253l260 -271h-259l-133 136l-122 -125h-259z" />
<glyph unicode="&#xda;" horiz-adv-x="1479" d="M-13 999h258v-498q0 -98 54 -193t152 -95q90 0 138.5 85t48.5 203v498h264v-498q0 -224 -119.5 -362t-337.5 -138q-216 0 -336.5 143.5t-120.5 356.5zM334 1200l93 200h273l-93 -200h-273z" />
<glyph unicode="&#xdc;" d="M-13 999h258v-498q0 -98 54 -193t152 -95q90 0 138.5 85t48.5 203v498h264v-498q0 -224 -119.5 -362t-337.5 -138q-216 0 -336.5 143.5t-120.5 356.5zM0 1200v200h243v-200h-243zM640 1200v200h260v-200h-260z" />
<glyph unicode="&#xe1;" horiz-adv-x="1139" d="M-17 -1l444 999h280l445 -999h-265l-81 180h-269l-122 167l-157 -347h-275zM434 1200l93 200h273l-93 -200h-273zM438 400h269l-136 298z" />
<glyph unicode="&#xe7;" d="M0 500q0 450 450 500h451l-101 -216h-325q-209 -1 -213 -281q2 -287 188 -286h451v-217h-166q3 -23 3 -49v-48q-2 -265 -254 -297h-234l80 216h92q77 8 77 97q0 63 -54 81h-35q-410 50 -410 500z" />
<glyph unicode="&#xe9;" horiz-adv-x="854" d="M0 0v217h760v-217h-760zM0 400v214h700v-214h-700zM0 780v218h810l-110 -218h-700zM271 1200l93 200h273l-93 -200h-273z" />
<glyph unicode="&#xed;" horiz-adv-x="348" d="M0 0v1000h250v-1000h-250zM0 1200l87 200h257l-88 -200h-256z" />
<glyph unicode="&#xf1;" horiz-adv-x="1000" d="M-1 999h1v1h249v-1l401 -581v581h251v-993l4 -6h-255v8l-401 580v-588h-249v997zM0 1200v200h907v-200h-907z" />
<glyph unicode="&#xf3;" horiz-adv-x="1050" d="M-3 501q0 224 141.5 362t360.5 138q229 0 365.5 -138t136.5 -362t-131.5 -362t-370.5 -138q-237 0 -369.5 143.5t-132.5 356.5zM264 501q0 -98 59 -193t189 -95q121 0 174 85t53 203q0 120 -53 203.5t-174 83.5q-129 0 -188.5 -84.5t-59.5 -202.5zM400 1200l93 200h273 l-93 -200h-273z" />
<glyph unicode="&#xf7;" horiz-adv-x="900" d="M100 400v204h700v-204h-700zM300 100v200h300v-200h-300zM300 700v200h300v-200h-300z" />
<glyph unicode="&#xfa;" horiz-adv-x="1139" d="M-13 999h258v-498q0 -98 54 -193t152 -95q90 0 138.5 85t48.5 203v498h264v-498q0 -224 -119.5 -362t-337.5 -138q-216 0 -336.5 143.5t-120.5 356.5zM334 1200l93 200h273l-93 -200h-273z" />
<glyph unicode="&#xfc;" horiz-adv-x="1139" d="M-13 999h258v-498q0 -98 54 -193t152 -95q90 0 138.5 85t48.5 203v498h264v-498q0 -224 -119.5 -362t-337.5 -138q-216 0 -336.5 143.5t-120.5 356.5zM0 1200v200h243v-200h-243zM640 1200v200h260v-200h-260z" />
<glyph unicode="&#x2c6;" horiz-adv-x="800" d="M16 1000l296 403l288 -397l-184 -2l-101 122l-99 -124z" />
<glyph unicode="&#x2dc;" horiz-adv-x="682" d="M0 1200v200h912v-200h-912z" />
<glyph unicode="&#x2000;" horiz-adv-x="701" />
<glyph unicode="&#x2001;" horiz-adv-x="1403" />
<glyph unicode="&#x2002;" horiz-adv-x="701" />
<glyph unicode="&#x2003;" horiz-adv-x="1403" />
<glyph unicode="&#x2004;" horiz-adv-x="467" />
<glyph unicode="&#x2005;" horiz-adv-x="350" />
<glyph unicode="&#x2006;" horiz-adv-x="233" />
<glyph unicode="&#x2007;" horiz-adv-x="233" />
<glyph unicode="&#x2008;" horiz-adv-x="175" />
<glyph unicode="&#x2009;" horiz-adv-x="280" />
<glyph unicode="&#x200a;" horiz-adv-x="77" />
<glyph unicode="&#x2010;" horiz-adv-x="700" d="M0 400v200h650v-200h-650z" />
<glyph unicode="&#x2011;" horiz-adv-x="700" d="M0 400v200h650v-200h-650z" />
<glyph unicode="&#x2012;" horiz-adv-x="700" d="M0 400v200h650v-200h-650z" />
<glyph unicode="&#x2013;" horiz-adv-x="1139" />
<glyph unicode="&#x2014;" horiz-adv-x="2048" />
<glyph unicode="&#x2018;" horiz-adv-x="649" d="M70 989q150 110 224 401v-508q-38 132 -224 107zM348 882v508q74 -291 224 -401q-186 25 -224 -107z" />
<glyph unicode="&#x2019;" horiz-adv-x="700" d="M70 989q150 110 224 401v-508q-38 132 -224 107zM348 882v508q74 -291 224 -401q-186 25 -224 -107z" />
<glyph unicode="&#x201a;" horiz-adv-x="644" d="M70 989q150 110 224 401v-508q-38 132 -224 107zM348 882v508q74 -291 224 -401q-186 25 -224 -107z" />
<glyph unicode="&#x201c;" horiz-adv-x="682" d="M70 989q150 110 224 401v-508q-38 132 -224 107zM348 882v508q74 -291 224 -401q-186 25 -224 -107z" />
<glyph unicode="&#x201d;" horiz-adv-x="682" d="M70 989q150 110 224 401v-508q-38 132 -224 107zM348 882v508q74 -291 224 -401q-186 25 -224 -107z" />
<glyph unicode="&#x201e;" horiz-adv-x="682" d="M70 989q150 110 224 401v-508q-38 132 -224 107zM348 882v508q74 -291 224 -401q-186 25 -224 -107z" />
<glyph unicode="&#x202f;" horiz-adv-x="280" />
<glyph unicode="&#x205f;" horiz-adv-x="350" />
<glyph unicode="&#x25fc;" horiz-adv-x="1000" d="M0 0v1000h1000v-1000h-1000z" />
</font>
</defs>
</svg>
